<svg width="320" height="320" xmlns="http://www.w3.org/2000/svg">
 <g id="Layer_1">
  <title>Layer 1</title>
  <g>
   <!--! Font Awesome Pro 6.2.1 by @fontawesome - https://fontawesome.com License - https://fontawesome.com/license (Commercial License) Copyright 2022 Fonticons, Inc. -->
   <g>
    <title fill="#ffffff">Layer 1</title>
    <path fill="#ffffff" d="m310.6,54.6c12.5,-12.5 12.5,-32.8 0,-45.3s-32.8,-12.5 -45.3,0l-105.3,105.4l-105.4,-105.3c-12.5,-12.5 -32.8,-12.5 -45.3,0s-12.5,32.8 0,45.3l105.4,105.3l-105.3,105.4c-12.5,12.5 -12.5,32.8 0,45.3s32.8,12.5 45.3,0l105.3,-105.4l105.4,105.3c12.5,12.5 32.8,12.5 45.3,0s12.5,-32.8 0,-45.3l-105.4,-105.3l105.3,-105.4z" id="svg_1"/>
   </g>
  </g>
 </g>

</svg>